<?xml version="1.0" encoding="UTF-8" standalone="no"?>
<!-- Created with Inkscape (http://www.inkscape.org/) -->

<svg
   width="14.287887mm"
   height="16.192553mm"
   viewBox="0 0 14.287887 16.192553"
   version="1.1"
   id="svg1"
   xmlns="http://www.w3.org/2000/svg"
   xmlns:svg="http://www.w3.org/2000/svg">
  <defs
     id="defs1">
    <linearGradient
       id="paint0_linear_47_2775"
       x1="5.20328"
       y1="50.336201"
       x2="44.310699"
       y2="11.8835"
       gradientUnits="userSpaceOnUse"
       gradientTransform="matrix(0.26458333,0,0,0.26458333,85.653311,128.98501)">
      <stop
         stop-color="#1E92E0"
         id="stop7" />
      <stop
         offset="1"
         stop-color="#27F5FF"
         id="stop8" />
    </linearGradient>
  </defs>
  <g
     id="layer1"
     transform="translate(-85.652921,-129.09077)">
    <path
       fill-rule="evenodd"
       clip-rule="evenodd"
       d="m 95.770791,132.52373 c 0.0214,0.0688 0.0128,0.15642 0.0642,0.20625 0.0514,0.0498 0.13793,0.0426 0.20691,0.064 -0.069,0.0213 -0.15724,0.0127 -0.20691,0.0639 -0.0497,0.0512 -0.0427,0.1375 -0.0642,0.20624 -0.0214,-0.0687 -0.0124,-0.15639 -0.0638,-0.20624 -0.0514,-0.0498 -0.13793,-0.0426 -0.2069,-0.0639 0.069,-0.0213 0.15724,-0.0127 0.2069,-0.064 0.0497,-0.0512 0.0424,-0.13748 0.0638,-0.20625 z m -1.95291,-0.46918 c 0.0269,0.088 0.0158,0.19867 0.081,0.26363 0.0652,0.065 0.17621,0.054 0.2645,0.0808 -0.0883,0.0272 -0.19934,0.0162 -0.2645,0.0811 -0.0652,0.065 -0.0542,0.17563 -0.081,0.26363 -0.0273,-0.088 -0.0162,-0.19867 -0.0814,-0.26363 -0.0652,-0.065 -0.17624,-0.054 -0.2645,-0.0811 0.0883,-0.0268 0.19931,-0.0158 0.2645,-0.0808 0.0652,-0.065 0.0531,-0.17563 0.0804,-0.26363 z m 3.28096,2.59625 c 0.0448,0.14507 0.0266,0.32827 0.13417,0.43553 0.10758,0.10723 0.29139,0.089 0.43693,0.13372 -0.14554,0.0447 -0.32901,0.0265 -0.43693,0.13369 -0.10795,0.10726 -0.0893,0.29046 -0.13417,0.43553 -0.0448,-0.14507 -0.0265,-0.32792 -0.13414,-0.43553 -0.10758,-0.10758 -0.29141,-0.089 -0.43694,-0.13369 0.14553,-0.0447 0.32901,-0.0265 0.43694,-0.13372 0.10795,-0.10726 0.0883,-0.29046 0.13311,-0.43553 z m -9.48015,2.0425 c 0.0265,0.0866 0.0155,0.19558 0.08,0.25953 0.0645,0.0639 0.17243,0.0533 0.26037,0.0798 -0.0869,0.0268 -0.19622,0.0158 -0.26037,0.0797 -0.0641,0.064 -0.0534,0.17188 -0.08,0.25988 -0.0269,-0.0866 -0.0159,-0.19558 -0.08,-0.25988 -0.0641,-0.0643 -0.17243,-0.0529 -0.26071,-0.0797 0.0869,-0.0265 0.19622,-0.0155 0.26071,-0.0798 0.0645,-0.0643 0.0531,-0.1729 0.08,-0.25953 z m 8.58284,0.48914 c -0.54557,-0.29594 -1.62083,-0.003 -2.5247,0.38637 0.60211,-0.54586 1.58633,-0.7679 2.22019,-0.70948 -0.45349,-1.57673 -1.4115,-2.91801 -3.07443,-3.66255 1.91363,0.46956 3.08616,2.21919 3.37894,3.98566 z m -4.47386,1.29762 c 0.2214,-1.83454 -0.46832,-3.63985 -1.22666,-5.23962 0.66145,1.69293 1.1508,3.57489 0.87595,5.26849 z m 6.73303,-0.98962 c -0.0497,0 -0.0982,0.0147 -0.13948,0.0422 -0.0413,0.0275 -0.0735,0.0666 -0.0925,0.11232 -0.019,0.0457 -0.024,0.096 -0.0143,0.14457 0.01,0.0486 0.0336,0.0931 0.0687,0.12813 0.0351,0.035 0.0798,0.0588 0.12856,0.0685 0.0487,0.01 0.0992,0.005 0.14504,-0.0142 0.0459,-0.0189 0.0851,-0.051 0.11266,-0.0922 0.0276,-0.0412 0.0423,-0.0895 0.0423,-0.13904 2e-5,-0.0329 -0.006,-0.0654 -0.019,-0.0958 -0.0126,-0.0304 -0.0311,-0.058 -0.0544,-0.0813 -0.0233,-0.0232 -0.051,-0.0417 -0.0815,-0.0542 -0.0305,-0.0125 -0.0632,-0.019 -0.0961,-0.0189 z m -9.44155,3.33428 c 1.00251,-1.49149 1.85534,-1.98578 2.80268,-1.97996 0.99526,-2.30063 -1.17046,-6.74828 -3.07925,-7.93281 1.24908,3.46077 1.02251,6.80709 0.27761,9.91449 z m 7.54862,-1.50731 c 0.0173,-0.0571 0.0343,-0.11435 0.051,-0.17187 -1.59015,0.39084 -3.18064,0.89924 -4.77113,1.40933 1.56946,-0.46337 3.14098,-0.90059 4.72009,-1.23746 z m 2.84991,-0.93805 c 0.0328,0 0.0647,0.01 0.092,0.0278 0.0272,0.0181 0.0485,0.0439 0.061,0.074 0.0126,0.0302 0.0158,0.0633 0.009,0.0953 -0.006,0.032 -0.0221,0.0614 -0.0453,0.0845 -0.0231,0.0231 -0.0526,0.0388 -0.0847,0.0452 -0.0321,0.006 -0.0654,0.003 -0.0957,-0.009 -0.0302,-0.0125 -0.0561,-0.0336 -0.0743,-0.0608 -0.0182,-0.0271 -0.0279,-0.059 -0.0279,-0.0917 0,-0.0438 0.0174,-0.0857 0.0485,-0.11668 0.0311,-0.0309 0.0732,-0.0483 0.11706,-0.0483 z m -1.93982,-6.00927 c 1.01698,0.90781 1.77016,2.62549 1.85981,3.19058 0.0542,0.33893 0.0631,0.64522 0.10138,0.94359 0.12796,0.99684 0.36592,-0.0753 0.21625,-0.75624 -0.36486,-1.65544 -1.207,-2.73581 -2.17744,-3.37793 z m -7.02961,-1.43133 c -0.26691,-0.42348 -0.52004,-0.90953 -0.45141,-1.37049 l 0.43003,1.30621 z m -2.23331,8.60484 c -0.0959,-0.0719 -0.46486,-0.0938 -0.50211,0.32311 -0.039,0.43516 0.051,1.14912 0.85629,1.49389 -0.84215,-0.0928 -1.9388,-1.59668 -1.22011,-2.25493 0.4121,-0.37743 1.14114,-0.14608 0.86593,0.43793 z m 0.21657,0.67268 c -0.1007,0.18082 -0.13242,0.26435 -0.0428,0.47265 0.0845,0.19661 0.38176,0.55722 1.05182,0.64831 -1.56532,0.0515 -1.60567,-1.17456 -1.00907,-1.12096 z m 9.64052,-1.72865 c 0.0304,0 0.0601,0.009 0.0853,0.0258 0.0252,0.0168 0.0449,0.0407 0.0565,0.0687 0.0116,0.028 0.0146,0.0587 0.009,0.0884 -0.006,0.0297 -0.0206,0.0569 -0.0421,0.0783 -0.0215,0.0214 -0.0489,0.0359 -0.0787,0.0418 -0.0298,0.006 -0.0607,0.003 -0.0887,-0.009 -0.028,-0.0117 -0.052,-0.0313 -0.0688,-0.0565 -0.0168,-0.0252 -0.0257,-0.0548 -0.0257,-0.0851 0,-0.0201 0.004,-0.0399 0.0117,-0.0585 0.008,-0.0185 0.019,-0.0354 0.0333,-0.0495 0.0143,-0.0142 0.0312,-0.0254 0.0498,-0.0331 0.0186,-0.008 0.0386,-0.0116 0.0587,-0.0115 z m -3.46167,4.54459 c 0.87524,-0.29081 1.67187,-0.80058 2.38537,-0.86212 0.53248,-0.0457 0.83249,0.18253 0.7587,0.7779 -0.38246,-0.3647 -1.14287,0.24061 -2.58953,0.82256 -1.67016,0.67098 -4.1673,0.77547 -5.48844,-0.54483 1.44081,0.68406 3.66998,0.22585 4.9339,-0.19351 z m 1.97397,-2.1281 c 0.94044,-0.10692 2.15813,0.0103 1.7091,1.41277 -0.0772,-0.76071 -1.0225,-0.99685 -2.33709,-0.53039 -1.43703,0.50837 -6.1002,2.44055 -7.67863,0.30007 2.57265,1.27839 5.914,-0.91057 8.30662,-1.18245 z m -9.39361,-0.34168 c 0.41659,0.59742 0.9018,0.95043 1.63531,1.04222 0.16767,0.0209 0.33629,0.0334 0.50523,0.0375 0.58626,0.0151 1.17009,-0.065 1.74085,-0.19317 0.58452,-0.13166 1.15803,-0.31316 1.72429,-0.5053 0.24828,-0.0839 0.49591,-0.17016 0.7435,-0.25609 0.25313,-0.0873 0.40762,-0.23821 0.42281,-0.2767 0.019,-0.0492 -0.17243,0.0344 -0.49144,0.10861 -0.34486,0.0821 -0.68625,0.16946 -1.02904,0.25471 -0.43212,0.10724 -0.86665,0.2114 -1.3053,0.28943 -0.69559,0.1234 -1.44116,0.18804 -2.13087,-0.002 0.72419,-0.31142 1.45219,-0.61873 2.18363,-0.91745 0.70006,-0.28495 1.40531,-0.55959 2.11847,-0.81087 1.22978,-0.43312 2.25607,-0.86518 3.54515,-1.07008 0.0859,0.1846 0.11242,0.42281 0.1007,0.60294 -0.0379,-0.11997 -0.0921,-0.22654 -0.17243,-0.29459 -2.00777,0.52454 -4.51385,1.33027 -6.38506,2.18514 1.94948,-0.7593 4.4073,-1.47807 6.33746,-1.98681 0.0652,0.0571 0.13279,0.17187 0.19002,0.28324 -0.0886,0.36507 -0.16036,0.52318 -0.35554,0.86349 0.20693,0.0158 0.59764,-0.15608 0.58317,-0.36576 0.31242,0.16809 0.12758,0.41937 0.11826,0.42005 0.21347,0.1169 0.48041,-0.15261 0.42625,-0.27291 0.57973,0.16189 1.45256,0.63076 1.03769,1.87269 -0.15933,-1.05013 -0.67074,-1.24124 -1.60877,-1.25465 -0.85836,-0.012 -1.66703,0.176 -2.47642,0.44444 -0.77732,0.25781 -1.53223,0.5792 -2.31471,0.82225 -0.10654,0.0344 -0.21415,0.0646 -0.32176,0.0945 -0.61727,0.17187 -1.25735,0.30318 -1.89672,0.352 -1.37805,0.10689 -2.32813,-0.14817 -2.92473,-1.46674 z m 8.41042,-8.60105 c -0.39949,-0.17172 -0.81391,-0.30668 -1.23806,-0.40321 h -0.002 c -0.41169,-0.0878 -0.83037,-0.13908 -1.25113,-0.15331 -0.42135,-0.009 -0.84267,0.0196 -1.25908,0.0842 -0.30302,0.0495 -0.60251,0.11838 -0.89664,0.20623 l 0.26209,0.79645 0.0314,0.0952 c 1.8595,0.089 3.77241,1.17079 4.66112,2.81178 0.19235,0.3532 0.33321,0.73192 0.4183,1.12472 0.0797,0.37394 0.10679,0.75711 0.0804,1.13848 -0.15685,-0.0819 -0.32364,-0.14322 -0.49626,-0.18254 -0.31467,-0.0679 -0.63992,-0.0713 -0.95594,-0.01 -0.34859,0.068 -0.68545,0.18597 -1.0001,0.35028 -0.25794,0.13062 -0.53244,0.32552 -0.80351,0.54724 l 0.25588,0.77856 -0.22897,0.0815 -0.22762,-0.69125 c -0.37624,0.3269 -0.73454,0.68747 -1.0187,0.98137 0.0417,-0.12099 0.0841,-0.24508 0.12621,-0.37192 1.01872,-1.67196 0.97491,-2.82761 0.78904,-3.39339 0.0369,0.8968 -0.37936,1.64203 -0.29279,1.22063 0.0255,-0.12547 0.0755,-0.54105 0.0445,-0.7906 -0.0479,-0.38982 -0.14931,-1.07284 -0.1745,-1.15912 -0.22071,-0.75827 -0.59833,-1.46465 -1.06905,-2.09989 l 0.34933,1.06111 0.7511,2.27968 c -10e-4,0.21939 -0.0146,0.43854 -0.0393,0.65656 l -1.45391,-4.4205 -0.007,-0.0196 -0.27863,-0.84595 -0.17071,-0.51802 c -0.88421,-0.59673 -2.35228,-1.06284 -2.01983,-0.2004 0.0748,0.19387 -0.98079,-0.23855 -1.06321,-0.60636 0.57522,0.30215 1.18873,-0.37089 1.37322,-0.55823 0.37314,-0.37811 0.76145,-0.33721 1.16459,-0.29046 l -0.0976,-0.29527 0.23106,-0.0746 0.40177,1.21855 0.20449,0.6208 c 0.32669,-0.10599 0.65953,-0.1922 0.99664,-0.25815 0.40195,-0.0721 0.80878,-0.11405 1.21703,-0.12546 0.40272,-0.006 0.80536,0.0184 1.20422,0.0742 0.14071,0.0186 0.28038,0.0437 0.41937,0.0715 0.48704,0.10217 0.96308,0.2509 1.4215,0.44411 0.44889,0.19759 0.87738,0.43831 1.27942,0.71877 0.11001,0.0756 0.21624,0.15674 0.32107,0.24062 h 0.002 c 0.85836,0.63111 1.57049,1.47325 1.98638,2.45705 0.28843,0.67492 0.42066,1.40592 0.38693,2.13873 -0.009,0.18426 -0.0576,0.38018 -0.16931,0.53039 -0.0766,0.10313 -0.18796,0.18769 -0.32004,0.19629 -0.13208,0.009 -0.25347,-0.0688 -0.33829,-0.16843 -0.14624,-0.17394 -0.21728,-0.43244 -0.25107,-0.65313 -0.33554,-2.16932 -1.31495,-3.78626 -3.2558,-4.63531 z m -7.05789,2.58183 c 0.0386,0.12615 0.0228,0.28495 0.11657,0.37811 0.0938,0.0932 0.25279,0.0773 0.37934,0.11584 -0.12655,0.0388 -0.28589,0.023 -0.37934,0.11618 -0.0935,0.0932 -0.0779,0.2523 -0.11657,0.37811 -0.039,-0.12615 -0.0231,-0.28495 -0.11655,-0.37811 -0.0935,-0.0932 -0.25314,-0.0773 -0.37936,-0.11618 0.12657,-0.0385 0.28588,-0.0227 0.37936,-0.11584 0.0934,-0.0932 0.0776,-0.25196 0.11655,-0.37811 z m -0.17793,5.12654 c 0.0303,-8e-5 0.0601,0.009 0.0854,0.0256 0.0253,0.0168 0.045,0.0406 0.0566,0.0686 0.0117,0.028 0.0148,0.0587 0.009,0.0884 -0.006,0.0297 -0.0205,0.057 -0.0419,0.0784 -0.0215,0.0214 -0.0488,0.036 -0.0786,0.042 -0.0298,0.006 -0.0607,0.003 -0.0887,-0.009 -0.0281,-0.0116 -0.0521,-0.0312 -0.0689,-0.0563 -0.0169,-0.0252 -0.0259,-0.0547 -0.0259,-0.085 0,-0.0405 0.0161,-0.0794 0.0448,-0.10805 0.0287,-0.0287 0.0677,-0.0448 0.10831,-0.0449 z m 0.46003,-0.90956 c 0.0462,0 0.0913,0.0137 0.1297,0.0392 0.0384,0.0256 0.0683,0.0619 0.086,0.10443 0.0177,0.0425 0.0223,0.0893 0.0133,0.13446 -0.009,0.0451 -0.0312,0.0866 -0.0639,0.11914 -0.0327,0.0326 -0.0743,0.0547 -0.11957,0.0637 -0.0453,0.009 -0.0922,0.004 -0.13488,-0.0132 -0.0426,-0.0176 -0.0791,-0.0474 -0.10478,-0.0857 -0.0257,-0.0383 -0.0393,-0.0833 -0.0393,-0.12927 8e-5,-0.0617 0.0247,-0.12084 0.0685,-0.16447 0.0438,-0.0436 0.10311,-0.0682 0.165,-0.0683 z m 10.21127,3.14386 c -0.69196,1.10305 -1.67111,1.9984 -2.83318,2.59067 -1.16205,0.59227 -2.46354,0.85928 -3.76579,0.77261 -1.30228,-0.0867 -2.55659,-0.52377 -3.62934,-1.26477 -1.07276,-0.74099 -1.92381,-1.75813 -2.4625,-2.94309 -0.33934,-0.74557 -0.56315,-1.45883 -0.64316,-2.24599 0,-0.0206 0,-0.0412 0.002,-0.0619 -0.0352,-0.2911 -0.0525,-0.58404 -0.0517,-0.87723 0.006,-0.47744 0.0554,-0.95337 0.14692,-1.42205 0.10012,-0.47909 0.24525,-0.94774 0.43348,-1.3997 0.19723,-0.45302 0.43597,-0.88694 0.71317,-1.29625 0.35521,-0.50083 0.73903,-0.95216 1.20011,-1.3571 0.0997,0.2499 0.16208,0.51562 0.2414,0.77068 l -0.005,0.005 c -1.74497,1.63412 -2.29709,3.91142 -1.8774,6.26809 0.0979,0.54999 0.32451,1.10273 0.63627,1.64137 0.58798,1.01608 1.06078,1.58395 1.99673,2.28552 0.74419,0.55729 1.59202,0.96176 2.49431,1.18988 0.90225,0.22813 1.84099,0.27541 2.76174,0.13904 0.92073,-0.13634 1.80512,-0.4536 2.60189,-0.93334 0.79676,-0.47972 1.49,-1.11239 2.03951,-1.86129 z m 0.15552,-3.73404 c -0.0997,0 -0.19719,0.0295 -0.28011,0.0847 -0.0829,0.0552 -0.14753,0.1337 -0.18568,0.22553 -0.0382,0.0918 -0.0482,0.19289 -0.0287,0.29036 0.0195,0.0975 0.0675,0.18703 0.13801,0.25731 0.0705,0.0703 0.16033,0.11816 0.25812,0.13755 0.0978,0.0194 0.19918,0.009 0.29131,-0.0286 0.0921,-0.038 0.17087,-0.10245 0.22627,-0.1851 0.0554,-0.0827 0.085,-0.17981 0.085,-0.27919 0,-0.1333 -0.0531,-0.26112 -0.14769,-0.35536 -0.0945,-0.0943 -0.22277,-0.14719 -0.3565,-0.14719 z"
       fill="url(#paint0_linear_47_2775)"
       id="path1"
       style="fill:url(#paint0_linear_47_2775);stroke-width:0.264583" />
  </g>
</svg>
